# xmcd
#
# Track frame offsets:
#	150
#	16404
#	33345
#	59062
#	80446
#	85710
#	144424
#	162213
#	191640
#	235031
#	265588
#
# Disc length: 3994 seconds
#
# Revision: 0
# Processed by: cddbd v1.4PL0 Copyright (c) Steve Scherf et al.
# Submitted via: dBpowerAMP V4.0
#
DISCID=850f980b
DTITLE=Gov't Mule - Sea Bright NJ 8-16-200 Disc 2
DYEAR=2000
DGENRE=Blues
TTITLE0=Don't Step On The Grass, Sam
TTITLE1=Politician
TTITLE2=Temporary Saint
TTITLE3=Monkey Hill
TTITLE4=She's So Heavy
TTITLE5=Drum solo
TTITLE6=Bass solo
TTITLE7=Mountain Jam
TTITLE8=Life Before Insanity
TTITLE9=Game Face
TTITLE10=World Gone Wild
EXTD=
EXTT0=
EXTT1=
EXTT2=
EXTT3=
EXTT4=
EXTT5=
EXTT6=
EXTT7=
EXTT8=
EXTT9=
EXTT10=
PLAYORDER=
